<?xml version="1.0" encoding="utf-8"?>
<!-- Generator: Adobe Illustrator 16.0.0, SVG Export Plug-In . SVG Version: 6.00 Build 0)  -->
<!DOCTYPE svg PUBLIC "-//W3C//DTD SVG 1.1//EN" "http://www.w3.org/Graphics/SVG/1.1/DTD/svg11.dtd">
<svg version="1.1"
	 id="svg2" xmlns:cc="http://creativecommons.org/ns#" xmlns:dc="http://purl.org/dc/elements/1.1/" xmlns:rdf="http://www.w3.org/1999/02/22-rdf-syntax-ns#" xmlns:sodipodi="http://sodipodi.sourceforge.net/DTD/sodipodi-0.dtd" xmlns:svg="http://www.w3.org/2000/svg" xmlns:inkscape="http://www.inkscape.org/namespaces/inkscape" inkscape:version="0.91 r13725" sodipodi:docname="icon-graduation-grey-green.html"
	 xmlns="http://www.w3.org/2000/svg" xmlns:xlink="http://www.w3.org/1999/xlink" x="0px" y="0px" width="300px" height="300px"
	 viewBox="0 0 300 300" enable-background="new 0 0 300 300" xml:space="preserve">
<sodipodi:namedview  bordercolor="#666666" pagecolor="#ffffff" showgrid="false" guidetolerance="10" inkscape:cy="295.63333" inkscape:cx="58.372751" gridtolerance="10" inkscape:zoom="1.1174364" borderopacity="1" id="namedview10" objecttolerance="10" inkscape:window-width="1951" inkscape:pageshadow="2" inkscape:window-maximized="0" inkscape:window-y="46" inkscape:window-height="830" inkscape:window-x="0" inkscape:pageopacity="0" inkscape:current-layer="g4">
	</sodipodi:namedview>
<path id="path6" fill="#A3A3A3" d="M288.576,83.091L166.841,30.918c-10.702-4.586-22.985-4.583-33.701,0.009L11.432,83.088
	C4.381,86.109,0,92.751,0,100.422c0,7.666,4.377,14.305,11.424,17.325l14.387,6.166c-0.015,0.149-0.023,0.3-0.023,0.452v68.083
	c-5.561,1.878-9.578,7.141-9.578,13.328c0,3.586,1.352,6.863,3.569,9.351c-2.453,2.405-4.082,5.665-4.418,9.358l-3.447,37.917
	c-0.235,2.591,0.636,5.177,2.389,7.097s4.251,3.021,6.851,3.021H39.4c2.6,0,5.098-1.102,6.851-3.021
	c1.754-1.92,2.624-4.507,2.389-7.097l-3.447-37.917c-0.335-3.693-1.965-6.953-4.418-9.358c2.218-2.487,3.569-5.763,3.569-9.351
	c0-6.188-4.017-11.449-9.578-13.328v-64.696l24.565,10.528c-0.015,0.148-0.022,0.299-0.022,0.451v34.278
	c0,14.306,9.795,27.54,27.583,37.267c16.93,9.257,39.342,14.355,63.106,14.355c23.764,0,46.176-5.099,63.105-14.355
	c17.787-9.727,27.583-22.961,27.583-37.267V138.73c0-0.152-0.008-0.302-0.022-0.45l47.903-20.53
	c7.051-3.021,11.431-9.665,11.431-17.334C300,92.75,295.623,86.111,288.576,83.091z M39.621,263.443
	c-0.088,0.098-0.185,0.098-0.221,0.098H21.155c-0.037,0-0.132,0-0.221-0.098c-0.089-0.098-0.08-0.193-0.077-0.229l3.447-37.918
	c0.283-3.109,2.851-5.455,5.974-5.455c3.122,0,5.69,2.346,5.973,5.455l3.447,37.917C39.702,263.25,39.71,263.346,39.621,263.443z
	 M30.278,210.863c-2.806,0-5.088-2.282-5.088-5.088s2.283-5.088,5.088-5.088s5.088,2.282,5.088,5.088S33.084,210.863,30.278,210.863
	z M231.709,153.854c0,11.609-9.555,22.944-26.215,31.098c-2.227,1.09-3.148,3.779-2.059,6.006c0.779,1.593,2.375,2.518,4.036,2.518
	c0.663,0,1.335-0.147,1.971-0.459c9.241-4.522,16.644-10.031,21.923-16.158c-1.684,9.468-9.545,18.42-22.566,25.541
	c-15.633,8.547-36.514,13.254-58.799,13.254s-43.166-4.707-58.798-13.254c-12.975-7.096-20.828-16.009-22.55-25.438
	c4.538,5.231,10.661,10.015,18.242,14.161c16.93,9.256,39.342,14.355,63.106,14.355c6.648,0,13.279-0.405,19.708-1.203
	c2.461-0.305,4.209-2.547,3.903-5.008s-2.544-4.209-5.009-3.902c-6.063,0.752-12.322,1.133-18.602,1.133
	c-22.285,0-43.166-4.706-58.798-13.254c-14.775-8.078-22.912-18.516-22.912-29.389v-11.735l64.87,27.802
	c5.348,2.292,11.09,3.438,16.835,3.438c5.752,0,11.505-1.149,16.865-3.447l64.85-27.792V153.854L231.709,153.854z M285.031,109.498
	l-121.709,52.161c-8.467,3.629-18.171,3.632-26.625,0.01l-93.018-39.866l85.229-14.823c3.833,4.537,11.646,7.508,21.091,7.508
	c13.48,0,23.645-6.048,23.645-14.067S163.479,86.353,150,86.353c-12.243,0-21.75,4.989-23.392,11.912l-97.099,16.887
	c-0.285,0.05-0.557,0.127-0.818,0.226l-13.729-5.884c-3.747-1.604-5.983-4.996-5.983-9.071c0-4.079,2.239-7.474,5.99-9.082
	l121.708-52.162c4.238-1.815,8.784-2.724,13.329-2.724c4.538,0,9.074,0.905,13.296,2.715l121.736,52.173
	c3.746,1.605,5.982,4.997,5.982,9.072C291.021,104.496,288.781,107.891,285.031,109.498L285.031,109.498z M135.333,100.42
	c0-1.308,5.042-5.088,14.666-5.088s14.666,3.78,14.666,5.088s-5.042,5.088-14.666,5.088S135.333,101.728,135.333,100.42z"/>
<path id="path8" fill="#A3A3A3" d="M183.518,201.78c0.334,0,0.674-0.038,1.014-0.116c3.389-0.783,6.727-1.691,9.922-2.703
	c2.363-0.748,3.674-3.27,2.926-5.634s-3.27-3.675-5.635-2.927c-2.969,0.939-6.076,1.785-9.233,2.514
	c-2.416,0.559-3.922,2.969-3.364,5.385C179.627,200.376,181.475,201.78,183.518,201.78L183.518,201.78z"/>
<path id="path4135" sodipodi:nodetypes="ccccccscccsssccccsccccccssccssssssssssscccsscccs" inkscape:connector-curvature="0" opacity="0.99" fill="#6E8EBC" enable-background="new    " d="
	M150.055,86.362c-12.243,0-21.749,4.989-23.391,11.913l-97.1,16.886c-0.285,0.049-0.557,0.126-0.818,0.226l-2.902,8.485v68.583
	c-5.561,1.879-9.578,7.143-9.578,13.33c0,3.587,1.352,6.861,3.569,9.35c-2.453,2.404-4.082,5.665-4.418,9.359l-3.447,37.916
	c-0.235,2.591,0.635,5.177,2.389,7.098c1.753,1.92,4.251,3.021,6.851,3.021h18.246c2.6,0,5.097-1.102,6.85-3.021
	c1.754-1.921,2.625-4.508,2.39-7.098l-3.447-37.916c-0.336-3.693-1.965-6.954-4.418-9.359c2.218-2.487,3.569-5.762,3.569-9.35
	c0-6.187-4.017-11.451-9.578-13.33V127.76l0.033,0.014l-0.001-0.011c8.901-6.01-0.031-0.003,8.901-6.01l85.208-14.764
	c3.833,4.537,11.646,7.507,21.091,7.507c13.48,0,23.645-6.048,23.645-14.067S163.535,86.362,150.055,86.362L150.055,86.362z
	 M150.055,95.342c9.623,0,14.666,3.78,14.666,5.088c0,1.308-5.043,5.088-14.666,5.088c-9.623,0-14.666-3.781-14.666-5.088
	S140.432,95.342,150.055,95.342L150.055,95.342z M30.334,200.697c2.806,0,5.088,2.282,5.088,5.088s-2.282,5.088-5.088,5.088
	s-5.088-2.282-5.088-5.088S27.528,200.697,30.334,200.697z M30.334,219.853c3.122,0,5.69,2.345,5.973,5.454l3.448,37.916
	c0.004,0.037,0.011,0.133-0.078,0.229c-0.089,0.098-0.184,0.099-0.22,0.099H21.211c-0.037,0-0.132-0.001-0.221-0.099
	c-0.089-0.097-0.08-0.192-0.077-0.228l3.446-37.918C24.643,222.197,27.211,219.853,30.334,219.853z"/>
</svg>
