<?xml version="1.0" encoding="utf-8"?>
<!-- Generator: Adobe Illustrator 16.0.0, SVG Export Plug-In . SVG Version: 6.00 Build 0)  -->
<!DOCTYPE svg PUBLIC "-//W3C//DTD SVG 1.1//EN" "http://www.w3.org/Graphics/SVG/1.1/DTD/svg11.dtd">
<svg version="1.1" id="Livello_1" xmlns="http://www.w3.org/2000/svg" xmlns:xlink="http://www.w3.org/1999/xlink" x="0px" y="0px"
	 width="512px" height="512px" viewBox="0 0 512 512" enable-background="new 0 0 512 512" xml:space="preserve">
<g>
	<path fill="#FFFFFF" d="M256.002,186.4c-38.373,0-69.6-31.227-69.6-69.6c0-38.374,31.227-69.601,69.6-69.601
		c38.325,0,69.601,31.227,69.601,69.601C325.603,155.173,294.327,186.4,256.002,186.4z M256.002,70.4
		c-25.613,0-46.4,20.81-46.4,46.4c0,25.588,20.788,46.399,46.4,46.399c25.613,0,46.399-20.811,46.399-46.399
		C302.401,91.21,281.615,70.4,256.002,70.4z"/>
	<path fill="#FFFFFF" d="M256.002,325.601c-45.727,0-89.112-14.5-125.535-41.969c-5.127-3.852-6.148-11.113-2.298-16.241
		c3.852-5.127,11.113-6.171,16.218-2.297c32.387,24.383,70.968,37.237,111.592,37.237c102.333,0,185.6-83.242,185.6-185.6
		c0-6.404,5.197-11.601,11.601-11.601c6.356,0,11.601,5.197,11.601,11.601C464.802,231.919,371.12,325.601,256.002,325.601z"/>
	<path fill="#FFFFFF" d="M256.002,70.4c-6.403,0-11.6-5.198-11.6-11.6V12.4c0-6.402,5.197-11.6,11.6-11.6
		c6.38,0,11.601,5.198,11.601,11.6v46.4C267.603,65.202,262.382,70.4,256.002,70.4z"/>
	<path fill="#FFFFFF" d="M35.602,511.2c-1.554,0-3.132-0.326-4.64-0.975c-5.869-2.551-8.56-9.397-5.985-15.265l162.4-371.201
		c2.528-5.869,9.396-8.561,15.265-5.986c5.869,2.575,8.538,9.419,5.986,15.266l-162.4,371.2
		C44.324,508.627,40.033,511.2,35.602,511.2z"/>
	<path fill="#FFFFFF" d="M476.402,511.2c-4.478,0-8.723-2.573-10.626-6.96l-162.4-371.2c-2.552-5.847,0.093-12.691,5.986-15.266
		c5.915-2.552,12.715,0.117,15.266,5.986l162.399,371.201c2.552,5.869-0.093,12.714-5.984,15.265
		C479.532,510.874,477.934,511.2,476.402,511.2z"/>
</g>
</svg>
