<?xml version="1.0" encoding="utf-8"?>
<!-- Generator: Adobe Illustrator 16.0.0, SVG Export Plug-In . SVG Version: 6.00 Build 0)  -->
<!DOCTYPE svg PUBLIC "-//W3C//DTD SVG 1.1//EN" "http://www.w3.org/Graphics/SVG/1.1/DTD/svg11.dtd">
<svg version="1.1"
	 id="svg2" xmlns:cc="http://creativecommons.org/ns#" xmlns:dc="http://purl.org/dc/elements/1.1/" xmlns:rdf="http://www.w3.org/1999/02/22-rdf-syntax-ns#" xmlns:sodipodi="http://sodipodi.sourceforge.net/DTD/sodipodi-0.dtd" xmlns:svg="http://www.w3.org/2000/svg" xmlns:inkscape="http://www.inkscape.org/namespaces/inkscape" inkscape:version="0.91 r13725" sodipodi:docname="icon-award-grey-green.html"
	 xmlns="http://www.w3.org/2000/svg" xmlns:xlink="http://www.w3.org/1999/xlink" x="0px" y="0px" width="300px" height="300px"
	 viewBox="0 0 300 300" enable-background="new 0 0 300 300" xml:space="preserve">
<sodipodi:namedview  bordercolor="#666666" pagecolor="#ffffff" showgrid="false" guidetolerance="10" inkscape:cy="255.1745" inkscape:cx="577.38637" gridtolerance="10" inkscape:zoom="0.46242865" borderopacity="1" id="namedview14" objecttolerance="10" inkscape:window-width="1356" inkscape:pageshadow="2" inkscape:window-maximized="0" inkscape:window-y="159" inkscape:window-height="694" inkscape:window-x="379" inkscape:pageopacity="0" inkscape:current-layer="g4">
	</sodipodi:namedview>
<path id="path6" fill="#A3A3A3" d="M231.928,211.479c1.557-0.869,3.006-1.938,4.32-3.254c7.012-7.01,7.036-17.855,7.061-28.342
	c0.016-6.687,0.031-13.601,2.029-18.419c1.867-4.501,6.395-8.998,11.188-13.759c7.596-7.544,15.449-15.345,15.449-25.73
	c0-10.385-7.854-18.186-15.449-25.73c-4.793-4.761-9.32-9.258-11.188-13.759c-1.998-4.818-2.014-11.732-2.029-18.418
	c-0.023-10.487-0.049-21.331-7.059-28.342c-7.011-7.011-17.855-7.036-28.343-7.06c-6.687-0.015-13.601-0.032-18.419-2.03
	c-4.502-1.866-8.998-6.394-13.76-11.188C168.186,7.854,160.386,0,150,0c-10.385,0-18.186,7.854-25.73,15.449
	c-4.761,4.793-9.258,9.321-13.759,11.188c-4.818,1.998-11.732,2.014-18.418,2.029c-10.487,0.024-21.331,0.049-28.341,7.06
	s-7.036,17.855-7.061,28.342c-0.015,6.687-0.031,13.6-2.029,18.418c-1.867,4.501-6.394,8.998-11.188,13.759
	c-7.595,7.544-15.449,15.344-15.449,25.73c0,10.385,7.854,18.186,15.449,25.73c4.793,4.761,9.321,9.257,11.187,13.759
	c1.998,4.818,2.014,11.731,2.029,18.418c0.024,10.486,0.049,21.331,7.06,28.342c1.315,1.315,2.766,2.385,4.323,3.255l-28.286,48.989
	c-0.741,1.283-0.788,2.854-0.124,4.178c0.663,1.326,1.948,2.229,3.42,2.404l33.686,4.018l20.323,27.164
	c0.835,1.116,2.146,1.768,3.529,1.768c0.087,0,0.174-0.002,0.262-0.008c1.479-0.088,2.815-0.913,3.556-2.197l33.278-57.639
	c3.733,2.307,7.763,3.795,12.282,3.795s8.55-1.488,12.282-3.795l33.277,57.639c0.741,1.285,2.078,2.109,3.557,2.197
	c0.088,0.006,0.175,0.008,0.263,0.008c1.384,0,2.694-0.651,3.529-1.768l20.322-27.164l33.687-4.018
	c1.471-0.176,2.756-1.078,3.42-2.404c0.663-1.324,0.617-2.895-0.125-4.178L231.928,211.479L231.928,211.479z M100.147,287.596
	l-17.449-23.323c-0.723-0.966-1.81-1.593-3.008-1.737l-28.923-3.449l25.819-44.718c4.907,0.892,10.251,0.903,15.506,0.915
	c4.193,0.011,8.475,0.021,12.275,0.52l-18.228,31.57c-1.217,2.108-0.495,4.805,1.614,6.022c0.694,0.401,1.453,0.591,2.2,0.591
	c1.523,0,3.005-0.79,3.822-2.205l19.15-33.166c0.008-0.014,0.014-0.029,0.022-0.043c3.695,2.252,7.42,6,11.322,9.93
	c2.098,2.111,4.216,4.244,6.404,6.222L100.147,287.596L100.147,287.596z M130.526,222.287c-5.164-5.199-10.503-10.575-16.637-13.119
	c-6.431-2.666-14.232-2.684-21.776-2.701c-9.098-0.021-17.691-0.041-22.128-4.479c-4.437-4.436-4.456-13.029-4.476-22.127
	c-0.017-7.544-0.036-15.346-2.702-21.775c-2.544-6.135-7.92-11.474-13.119-16.638c-6.315-6.272-12.846-12.758-12.846-19.473
	c0-6.716,6.53-13.201,12.846-19.474c5.199-5.164,10.575-10.503,13.119-16.637c2.667-6.431,2.685-14.232,2.702-21.776
	c0.021-9.098,0.041-17.691,4.478-22.128c4.437-4.437,13.029-4.456,22.126-4.476c7.544-0.017,15.346-0.036,21.776-2.702
	c6.134-2.543,11.474-7.919,16.637-13.119C136.799,15.348,143.284,8.817,150,8.817c6.716,0,13.202,6.53,19.474,12.846
	c5.163,5.199,10.503,10.575,16.637,13.119c6.431,2.667,14.231,2.685,21.776,2.702c9.098,0.021,17.691,0.041,22.127,4.478
	c4.438,4.437,4.457,13.029,4.478,22.127c0.017,7.544,0.035,15.346,2.702,21.776c2.543,6.134,7.92,11.474,13.118,16.638
	c6.315,6.272,12.846,12.758,12.846,19.473c0,6.716-6.53,13.202-12.847,19.474c-5.198,5.164-10.574,10.503-13.118,16.636
	c-2.667,6.432-2.685,14.232-2.702,21.777c-0.021,9.098-0.041,17.691-4.478,22.127c-4.437,4.437-13.029,4.457-22.128,4.478
	c-7.543,0.017-15.345,0.035-21.775,2.701c-6.135,2.544-11.474,7.92-16.638,13.119c-6.271,6.315-12.756,12.845-19.472,12.845
	C143.284,235.133,136.798,228.604,130.526,222.287L130.526,222.287z M220.311,262.536c-1.198,0.144-2.285,0.771-3.008,1.737
	l-17.449,23.323l-30.527-52.873c2.188-1.978,4.306-4.11,6.404-6.222c4.203-4.232,8.201-8.254,12.178-10.424
	c0.074,0.183,0.157,0.363,0.258,0.538l19.15,33.166c0.816,1.415,2.299,2.205,3.822,2.205c0.748,0,1.506-0.19,2.2-0.591
	c2.108-1.218,2.831-3.914,1.613-6.023l-18.298-31.689c3.537-0.379,7.431-0.39,11.252-0.398c5.256-0.012,10.602-0.024,15.51-0.916
	l25.816,44.719L220.311,262.536L220.311,262.536z"/>
<path id="path8" fill="#6E8EBC" d="M229.65,121.976c0-43.92-35.73-79.651-79.651-79.651c-43.92,0-79.651,35.731-79.651,79.651
	S106.08,201.627,150,201.627C193.92,201.627,229.65,165.896,229.65,121.976z M150,192.809c-39.058,0-70.833-31.775-70.833-70.833
	c0-39.058,31.776-70.834,70.833-70.834c39.058,0,70.834,31.776,70.834,70.834C220.834,161.033,189.058,192.809,150,192.809z"/>
<path id="path10" fill="#6E8EBC" d="M150,61.135c-33.547,0-60.84,27.293-60.84,60.841c0,12.838,3.952,25.115,11.428,35.503
	c1.422,1.977,4.178,2.426,6.154,1.004s2.425-4.178,1.003-6.154c-6.39-8.878-9.768-19.374-9.768-30.352
	c0-28.686,23.337-52.023,52.023-52.023c28.686,0,52.024,23.337,52.024,52.023S178.686,173.999,150,173.999
	c-9.148,0-18.142-2.405-26.011-6.958c-2.107-1.219-4.804-0.499-6.024,1.608c-1.219,2.107-0.5,4.804,1.608,6.024
	c9.208,5.327,19.729,8.144,30.426,8.144c33.548,0,60.841-27.293,60.841-60.841S183.548,61.135,150,61.135L150,61.135z"/>
<path id="path12" fill="#6E8EBC" d="M183.213,121.976c0,2.435,1.973,4.409,4.408,4.409c2.435,0,4.408-1.974,4.408-4.409
	c0-23.176-18.854-42.03-42.03-42.03c-2.435,0-4.409,1.974-4.409,4.409c0,2.435,1.974,4.409,4.409,4.409
	C168.313,88.763,183.213,103.662,183.213,121.976z"/>
</svg>
