<?xml version="1.0" encoding="utf-8"?>
<!-- Generator: Adobe Illustrator 16.0.0, SVG Export Plug-In . SVG Version: 6.00 Build 0)  -->
<!DOCTYPE svg PUBLIC "-//W3C//DTD SVG 1.1//EN" "http://www.w3.org/Graphics/SVG/1.1/DTD/svg11.dtd">
<svg version="1.1" id="Livello_1" xmlns="http://www.w3.org/2000/svg" xmlns:xlink="http://www.w3.org/1999/xlink" x="0px" y="0px"
	 width="512px" height="512px" viewBox="0 0 512 512" enable-background="new 0 0 512 512" xml:space="preserve">
<path fill="#FFFFFF" d="M257.314,4.335C118.119,4.335,4.74,117.714,4.74,256.91c0,44.341,11.788,86.438,31.993,122.359
	c0,0.563,0.56,0.563,0.56,1.121c0.563,0.563,0.563,1.123,1.124,1.684c2.245,3.369,3.929,7.3,6.174,10.667
	c11.787,18.521,25.819,35.92,42.095,50.513c7.858,6.737,16.277,13.471,24.697,20.208c20.767,14.594,43.218,25.816,66.792,33.677
	c3.367,1.123,6.735,2.244,9.542,2.805c12.908,3.367,26.38,6.176,39.289,7.298c2.246,0,4.491,0.562,6.736,0.562
	c1.684,0,3.93,0.56,5.613,0.56c5.613,0.562,11.226,0.562,16.838,0.562c139.197,0,252.574-113.379,252.574-252.574
	C508.767,117.153,396.511,4.335,257.314,4.335z M257.314,488.72c-24.134,0-47.708-3.932-69.597-10.664l-24.696-136.392
	l185.782,128.533C320.74,481.983,289.869,488.72,257.314,488.72z M257.314,25.103c24.699,0,48.272,3.929,70.161,10.665
	l26.378,143.126L161.336,45.87C190.523,32.4,223.077,25.103,257.314,25.103z M471.723,168.229c11.228,27.502,17.4,57.25,17.4,88.681
	c0,25.82-4.489,50.515-12.349,73.526l-137.513,25.26L471.723,168.229z M320.74,359.624l-85.876,15.155l-75.772-52.199
	l-16.277-89.243l49.953-71.843l88.121-16.277l76.336,52.759l16.275,86.999L320.74,359.624z M464.988,154.197l-80.823,115.623
	L342.068,41.38C395.95,62.147,439.73,103.121,464.988,154.197z M265.172,134.553L40.101,176.086
	c19.645-52.76,58.373-96.539,107.203-122.92L265.172,134.553z M25.508,256.91c0-23.011,3.367-45.463,9.541-66.792L174.246,164.3
	L45.151,350.082C32.805,322.019,25.508,290.026,25.508,256.91z M51.888,364.677l80.262-115.624l40.974,223.951
	C120.925,452.234,78.268,413.508,51.888,364.677z M250.58,386.005l220.581-40.413c-21.326,51.077-60.056,92.611-108.887,117.87
	L250.58,386.005z"/>
</svg>
