<?xml version="1.0" encoding="utf-8"?>
<!-- Generator: Adobe Illustrator 16.0.0, SVG Export Plug-In . SVG Version: 6.00 Build 0)  -->
<!DOCTYPE svg PUBLIC "-//W3C//DTD SVG 1.1//EN" "http://www.w3.org/Graphics/SVG/1.1/DTD/svg11.dtd">
<svg version="1.1"
	 id="svg2" xmlns:cc="http://creativecommons.org/ns#" xmlns:dc="http://purl.org/dc/elements/1.1/" xmlns:rdf="http://www.w3.org/1999/02/22-rdf-syntax-ns#" xmlns:sodipodi="http://sodipodi.sourceforge.net/DTD/sodipodi-0.dtd" xmlns:svg="http://www.w3.org/2000/svg" xmlns:inkscape="http://www.inkscape.org/namespaces/inkscape" inkscape:version="0.91 r13725" sodipodi:docname="icon-graph-grey-green.html"
	 xmlns="http://www.w3.org/2000/svg" xmlns:xlink="http://www.w3.org/1999/xlink" x="0px" y="0px" width="512px" height="512px"
	 viewBox="0 0 512 512" enable-background="new 0 0 512 512" xml:space="preserve">
<sodipodi:namedview  bordercolor="#666666" pagecolor="#ffffff" showgrid="false" guidetolerance="10" inkscape:cy="256" inkscape:cx="6.5084746" gridtolerance="10" inkscape:zoom="0.4609375" borderopacity="1" id="namedview10" objecttolerance="10" inkscape:window-width="1319" inkscape:pageshadow="2" inkscape:window-maximized="0" inkscape:window-y="23" inkscape:window-height="746" inkscape:window-x="0" inkscape:pageopacity="0" inkscape:current-layer="g4">
	</sodipodi:namedview>
<path id="path6" fill="#A3A3A3" d="M504.484,32.063h-16.031H263.515V7.515C263.515,3.365,260.15,0,256,0
	c-4.15,0-7.515,3.365-7.515,7.515v24.548H23.547H7.516c-4.15,0-7.515,3.365-7.515,7.515s3.365,7.515,7.515,7.515h8.517v305.095
	c0,12.983,10.563,23.546,23.546,23.546h102.175l-11.274,38.33c-0.004,0.014-0.008,0.027-0.012,0.041l-25.958,88.259
	c-1.17,3.981,1.107,8.159,5.089,9.33c0.708,0.208,1.421,0.308,2.124,0.308c3.248,0,6.243-2.123,7.206-5.396l24.347-82.777h225.451
	l24.347,82.777c0.963,3.274,3.959,5.396,7.206,5.396c0.702,0,1.417-0.1,2.124-0.308c3.981-1.171,6.26-5.349,5.089-9.33
	l-25.958-88.259c-0.005-0.014-0.009-0.027-0.013-0.041l-11.273-38.33h102.175c12.983,0,23.546-10.563,23.546-23.546V47.092h8.517
	c4.15,0,7.515-3.365,7.515-7.515S508.635,32.063,504.484,32.063L504.484,32.063z M364.305,408.797h-216.61l9.725-33.064h197.16
	L364.305,408.797L364.305,408.797z M480.938,352.187c0,4.696-3.82,8.517-8.517,8.517H360.33c-0.009,0-0.018,0-0.026,0H151.708
	c-0.015,0-0.031,0-0.046,0H39.578c-4.696,0-8.517-3.82-8.517-8.517V47.092h449.877V352.187L480.938,352.187z"/>
<path id="path8" fill="#6E8EBC" d="M175.226,205.911l-92.867,92.868c-2.935,2.935-2.935,7.693,0,10.627
	c1.467,1.467,3.391,2.201,5.313,2.201s3.847-0.733,5.313-2.201l92.867-92.867c3.321-3.32,8.724-3.321,12.045,0l49.469,49.469
	c4.447,4.448,10.36,6.896,16.649,6.896s12.203-2.449,16.649-6.896L416.813,129.86v53.998c0,4.15,3.364,7.515,7.515,7.515
	s7.515-3.365,7.515-7.515v-72.138c0-0.249-0.013-0.497-0.037-0.746c-0.01-0.106-0.031-0.21-0.045-0.315
	c-0.02-0.137-0.036-0.275-0.063-0.412c-0.023-0.123-0.058-0.241-0.088-0.361c-0.029-0.117-0.055-0.235-0.09-0.352
	c-0.036-0.118-0.08-0.231-0.122-0.348c-0.041-0.116-0.08-0.232-0.127-0.347c-0.045-0.108-0.098-0.212-0.147-0.318
	c-0.055-0.116-0.105-0.233-0.167-0.348c-0.055-0.103-0.118-0.2-0.178-0.301c-0.065-0.11-0.128-0.222-0.2-0.33
	c-0.075-0.112-0.158-0.217-0.239-0.324c-0.066-0.088-0.127-0.18-0.198-0.265c-0.314-0.384-0.667-0.735-1.05-1.049
	c-0.084-0.069-0.173-0.128-0.258-0.192c-0.11-0.083-0.219-0.168-0.333-0.244c-0.104-0.069-0.211-0.129-0.317-0.193
	c-0.104-0.063-0.206-0.127-0.313-0.186c-0.108-0.058-0.22-0.107-0.33-0.159c-0.112-0.053-0.221-0.108-0.336-0.156
	c-0.107-0.044-0.217-0.08-0.325-0.119c-0.122-0.044-0.243-0.091-0.369-0.129c-0.107-0.032-0.217-0.056-0.326-0.083
	c-0.129-0.033-0.257-0.069-0.388-0.095c-0.122-0.024-0.245-0.038-0.367-0.056c-0.121-0.018-0.238-0.04-0.36-0.052
	c-0.216-0.021-0.433-0.03-0.649-0.033c-0.029,0-0.059-0.005-0.089-0.005h-72.141c-4.15,0-7.515,3.365-7.515,7.515
	s3.364,7.515,7.515,7.515h53.998L270.037,255.381c-1.607,1.607-3.746,2.494-6.021,2.494s-4.414-0.885-6.023-2.494l-49.469-49.47
	C199.344,196.731,184.405,196.731,175.226,205.911L175.226,205.911z"/>
</svg>
