<?xml version="1.0" encoding="utf-8"?>
<!-- Generator: Adobe Illustrator 16.0.0, SVG Export Plug-In . SVG Version: 6.00 Build 0)  -->
<!DOCTYPE svg PUBLIC "-//W3C//DTD SVG 1.1//EN" "http://www.w3.org/Graphics/SVG/1.1/DTD/svg11.dtd">
<svg version="1.1" id="Livello_1" xmlns="http://www.w3.org/2000/svg" xmlns:xlink="http://www.w3.org/1999/xlink" x="0px" y="0px"
	 width="512px" height="512px" viewBox="0 0 512 512" enable-background="new 0 0 512 512" xml:space="preserve">
<path fill="#FFFFFF" d="M55.228,372.761c-26.243,26.216-31.424,83.365-31.94,89.79l-1.743,22.262l22.256-1.754
	c6.446-0.521,63.697-5.789,89.785-31.859c17.325-17.329,26.614-38.252,27.104-57.082l8.003-6.249
	c38.64-30.058,98.861-85.141,161.067-147.297c47.093-47.089,91.145-95.588,124.044-136.557
	c41.07-51.171,55.652-75.129,39.732-91.056c-16.119-16.134-40.076-1.551-91.258,39.47c-41.042,32.906-89.563,76.93-136.625,123.961
	c-62.28,62.247-117.384,122.425-147.416,160.994l-6.521,8.321C93.06,346.348,72.36,355.617,55.228,372.761z M181.962,298.035
	l26.125,26.137c-19.141,17.085-36.392,31.768-50.783,43.1l-18.494-18.505C150.167,334.4,164.839,317.165,181.962,298.035z
	 M313.333,224.14c-33.277,33.256-65.913,64.409-94.888,90.688l-27.14-27.149c26.291-28.947,57.458-61.567,90.757-94.856
	c46.479-46.452,94.33-89.876,134.735-122.267c39.187-31.402,54.094-38.895,59.5-40.563c-1.669,5.404-9.157,20.3-40.597,59.482
	C403.309,129.805,359.861,177.634,313.333,224.14z M71.638,389.197c20.273-20.28,47-26.539,59.551-13.981
	c12.548,12.548,6.256,39.277-14.024,59.553c-15.12,15.104-50.066,22.399-70.233,24.658
	C49.009,441.438,56.083,404.736,71.638,389.197z"/>
<g>
	<g>
		<path fill="#FFFFFF" d="M496.501,447.372c-24.59,13.367-51.195,23.098-78.127,30.542c-27.184,7.514-55.29,12.057-83.538,10.105
			c-22.568-1.559-44.342-8.258-66.18-13.708c-23.013-5.743-46.323-10.079-70.063-11.115c-19.833-0.866-39.656,0.839-59.237,3.946
			c-4.043,0.642-6.23,5.62-5.238,9.227c1.173,4.266,5.192,5.878,9.226,5.238c26.888-4.268,54.344-4.911,81.322-1.039
			c22.167,3.183,43.752,9.234,65.432,14.684c23.611,5.935,47.377,9.329,71.763,7.835c30.304-1.857,60.231-9.59,88.8-19.56
			c18.302-6.388,36.368-13.939,53.41-23.204C512.571,455.703,505,442.751,496.501,447.372L496.501,447.372z"/>
	</g>
</g>
</svg>
